
		<svg xmlns="http://www.w3.org/2000/svg" xmlns:xlink="http://www.w3.org/1999/xlink" version="1.1" width="3142.8571428571427" height="935.7142857142858">
			
			<g transform="scale(7.142857142857143) translate(10, 10)">
				<defs id="SvgjsDefs1330"></defs><g id="SvgjsG1331" featureKey="root" fill="#ffffff"></g><g id="SvgjsG1332" featureKey="symbol1" fill="#357f53" transform="matrix(1.1666666666666667,0,0,1.1666666666666667,7.666666666666666,20.666666666666668)"><path d="M3,59h10h4c0.553,0,1-0.448,1-1v-1h2.764l10.691,5.346c0.463,0.231,0.963,0.347,1.463,0.346  c0.568,0,1.137-0.149,1.646-0.446L56.38,49.52c0.999-0.584,1.62-1.666,1.62-2.823c0-0.967-0.425-1.879-1.164-2.501  c-0.741-0.623-1.72-0.882-2.664-0.719L34.34,46.926l-5.633-5.633C28.52,41.105,28.266,41,28,41H17h-4H3c-0.553,0-1,0.448-1,1v16  C2,58.552,2.447,59,3,59z M35.465,50.878C35.81,51.224,36,51.683,36,52.171C36,53.18,35.18,54,34.172,54  c-0.481,0-0.952-0.195-1.293-0.536l-5.172-5.171l-1.414,1.414l5.172,5.171C32.188,55.602,33.148,56,34.172,56  C36.282,56,38,54.283,38,52.171c0-1.022-0.398-1.983-1.121-2.707l-0.809-0.809l18.444-3.208c0.373-0.066,0.747,0.038,1.034,0.279  C55.835,45.968,56,46.322,56,46.697c0,0.449-0.241,0.869-0.629,1.096L33.556,60.518c-0.37,0.216-0.821,0.23-1.206,0.039  l-10.902-5.451C21.309,55.036,21.155,55,21,55h-3V43h9.586L35.465,50.878z M16,57h-2V43h2V57z M4,43h8v14H4V43z"></path><path d="M57,9H45V5c0-1.654-1.346-3-3-3h-6c-1.654,0-3,1.346-3,3v4H21c-2.757,0-5,2.243-5,5v20c0,2.757,2.243,5,5,5h36  c2.757,0,5-2.243,5-5V14C62,11.243,59.757,9,57,9z M18,20.414l1.293,1.293C19.48,21.895,19.734,22,20,22h14v5c0,0.552,0.447,1,1,1h8  c0.553,0,1-0.448,1-1v-5h14c0.266,0,0.52-0.105,0.707-0.293L60,20.414v9.655c-3.612,0.453-6.477,3.319-6.931,6.931H24.931  c-0.453-3.612-3.319-6.477-6.931-6.931V20.414z M40,24v-2h2v4h-6v-4h2v2H40z M35,5c0-0.551,0.448-1,1-1h6c0.552,0,1,0.449,1,1v4h-8  V5z M21,11h13h10h13c1.654,0,3,1.346,3,3v3.586L57.586,20H43h-8H20.414L18,17.586V14C18,12.346,19.346,11,21,11z M18,34v-1.91  c2.507,0.423,4.486,2.403,4.91,4.91H21C19.346,37,18,35.654,18,34z M57,37h-1.91c0.423-2.507,2.403-4.486,4.91-4.91V34  C60,35.654,58.654,37,57,37z"></path></g><g id="SvgjsG1333" featureKey="text1" fill="#64224a" transform="matrix(4.090728168765286,0,0,4.090728168765286,95.85409538001524,-32.70833562108721)"><path d="M9.0676 23.72898 c0.016949 0.15238 -0.017776 0.27085 -0.15337 0.27085 l-0.72881 0 c-0.32203 0 -0.45763 -0.20322 -0.45763 -0.47441 l0 -4.678 c0 -1.2881 -0.81356 -2.1863 -2.3051 -2.1863 c-1.2542 0 -2.2203 0.62695 -3.0337 1.4236 l0 5.6949 c0 0.067797 -0.016949 0.11864 -0.050847 0.16949 c-0.033732 0.033898 -0.08458 0.050681 -0.13543 0.050681 l-0.89814 0 c-0.050847 0 -0.084746 -0.016784 -0.11864 -0.050681 c-0.050847 -0.033898 -0.067631 -0.084746 -0.067631 -0.16949 l0 -12.119 c0 -0.54237 -0.067797 -0.74576 -0.10169 -0.94915 c-0.016784 -0.15254 0.034064 -0.27119 0.15271 -0.27119 l0.77966 0 c0.27119 0 0.44068 0.16949 0.44068 0.4239 l0 5.9322 c0.72881 -0.62712 1.7797 -1.3051 3.1525 -1.3051 c1.7458 0 3.4578 1.0339 3.4578 3.1863 l0 3.8136 c0 0.44085 0.033732 0.84746 0.067631 1.2375 z M11.847454237288135 11.949 c-0.42373 0 -0.74576 -0.32203 -0.74576 -0.72881 s0.32203 -0.72881 0.74576 -0.72881 c0.38983 0 0.72881 0.32203 0.72881 0.72881 s-0.33898 0.72881 -0.72881 0.72881 z M12.271154237288135 15.6102 l-0.84746 -0.00016552 c-0.15254 0 -0.22034 0.067797 -0.22034 0.22034 l0 7.7119 c0 0.27119 0.15254 0.45763 0.42373 0.45763 l0.66102 0 c0.11864 0 0.20339 -0.08458 0.20339 -0.22017 l0 -7.9492 c0 -0.15254 -0.084746 -0.22034 -0.22034 -0.22034 z M19.59301186440678 23.50864 c0.050847 0.10169 -0.050681 0.18678 -0.16933 0.25458 c-0.3222 0.16949 -0.89847 0.32169 -1.5425 0.32169 c-1.7627 0 -2.1864 -1.0169 -2.1864 -3.1186 l0 -4.1186 l-1.0508 0 c-0.11864 0 -0.20339 -0.067797 -0.20339 -0.20339 l0 -0.25424 c0 -0.10169 0.016949 -0.16949 0.11864 -0.23729 c1.0339 -0.49136 1.5085 -1 1.9322 -3.0169 c0.033898 -0.10169 0.067797 -0.16949 0.15254 -0.16949 l0.20339 0 c0.11864 0 0.13559 0.067797 0.13559 0.18644 l0 2.4576 l2.1017 0 c0.11864 0 0.22017 0.084746 0.22017 0.22034 l0 0.81356 c0 0.11864 -0.10153 0.20339 -0.22017 0.20339 l-1.7798 0 c-0.13559 0 -0.25424 -0.016949 -0.33898 -0.050847 l0 4 c0 1.322 0.084746 2.0847 1.1017 2.0847 c0.50847 0 0.76271 -0.08458 1.0339 -0.16933 c0.16966 -0.050847 0.30525 -0.017115 0.33915 0.11848 z M28.38963559322034 20.3731 c0.47458 0 0.81356 -0.18661 0.81356 -0.79678 c0 -2.1695 -1.678 -4.0847 -4.1017 -4.0847 c-2.3559 0 -4.1695 1.8814 -4.1695 4.3051 c0 2.5085 1.9153 4.3047 4.2881 4.3047 c1.4915 0 2.661 -0.71153 3.4237 -1.6946 c0.084746 -0.11864 0.067797 -0.20339 -0.033898 -0.30508 l-0.22034 -0.28814 c-0.10153 -0.13559 -0.22034 -0.11864 -0.33898 -0.016784 c-0.64407 0.64407 -1.5763 1.1525 -2.7119 1.1525 c-1.8136 0 -2.8983 -1.2712 -3.0507 -2.5763 l6.1015 0 z M22.27103559322034 19.339 c0.033898 -1.1356 0.9322 -2.661 2.8136 -2.661 s2.7458 1.5763 2.7966 2.661 l-5.6102 0 z M37.91505762711864 22.3222 c0.10169 0.11864 0.10153 0.20373 0.016784 0.30525 c-0.77966 0.83051 -1.8305 1.4912 -3.1017 1.4912 c-2.3559 0 -4.3051 -1.8642 -4.3051 -4.3049 s1.9492 -4.322 4.3051 -4.322 c1.2712 0 2.3051 0.59322 2.9661 1.339 c0.10169 0.11864 0.10169 0.22034 0.016949 0.32203 l-0.45763 0.54237 c-0.084746 0.084746 -0.15254 0.10169 -0.30508 -0.033898 c-0.49136 -0.54237 -1.2202 -0.9661 -2.1524 -0.9661 c-2.1017 0 -3.1356 1.6441 -3.1356 3.1186 c0 1.4407 1.0339 3.1017 3.1525 3.1017 c0.93254 0 1.6273 -0.45763 2.2544 -1.1356 c0.13559 -0.11864 0.22017 -0.084912 0.32203 0.016949 z M47.74556610169491 23.72898 c0.016949 0.15238 -0.017776 0.27085 -0.15337 0.27085 l-0.72881 0 c-0.32203 0 -0.45763 -0.20322 -0.45763 -0.47441 l0 -4.678 c0 -1.2881 -0.81356 -2.1863 -2.3051 -2.1863 c-1.2542 0 -2.2203 0.62695 -3.0337 1.4236 l0 5.6949 c0 0.067797 -0.016949 0.11864 -0.050847 0.16949 c-0.033732 0.033898 -0.08458 0.050681 -0.13543 0.050681 l-0.89814 0 c-0.050847 0 -0.084746 -0.016784 -0.11864 -0.050681 c-0.050847 -0.033898 -0.067631 -0.084746 -0.067631 -0.16949 l0 -12.119 c0 -0.54237 -0.067797 -0.74576 -0.10169 -0.94915 c-0.016784 -0.15254 0.034064 -0.27119 0.15271 -0.27119 l0.77966 0 c0.27119 0 0.44068 0.16949 0.44068 0.4239 l0 5.9322 c0.72881 -0.62712 1.7797 -1.3051 3.1525 -1.3051 c1.7458 0 3.4578 1.0339 3.4578 3.1863 l0 3.8136 c0 0.44085 0.033732 0.84746 0.067631 1.2375 z M50.38982033898304 11.949 c-0.42373 0 -0.74576 -0.32203 -0.74576 -0.72881 s0.32203 -0.72881 0.74576 -0.72881 c0.38983 0 0.72881 0.32203 0.72881 0.72881 s-0.33898 0.72881 -0.72881 0.72881 z M50.83052033898304 15.6102 l-0.86424 0 c-0.13559 0 -0.20339 0.084746 -0.20339 0.22034 l0 9.8644 c0 0.88119 -0.20339 1.2202 -0.94915 1.5592 c-0.13559 0.050847 -0.15254 0.13559 -0.10169 0.25424 l0.42356 0.84746 c0.050847 0.11864 0.13559 0.11864 0.27119 0.067797 c1.3051 -0.55932 1.6441 -1.5085 1.6441 -2.7286 l-0.016949 -9.8644 c0 -0.13559 -0.067797 -0.22034 -0.20339 -0.22034 z M57.33878474576271 24.10153 c2.3559 0 4.322 -1.8812 4.322 -4.288 c0 -2.4576 -1.9661 -4.339 -4.322 -4.339 c-2.3898 0 -4.3559 1.8814 -4.3559 4.339 c0 2.4068 1.9661 4.288 4.3559 4.288 z M57.33878474576271 22.8985 c-1.7797 0 -3.1017 -1.4576 -3.1017 -3.0847 c0 -1.661 1.322 -3.1186 3.1017 -3.1186 c1.7458 0 3.0678 1.4576 3.0678 3.1186 c0 1.6271 -1.322 3.0847 -3.0678 3.0847 z M67.38978305084746 15.5256 c2 0 3.8981 1.6439 3.8981 4.2032 c0 2.4236 -1.4915 4.3725 -3.8983 4.3725 c-1.0339 0 -1.9661 -0.38949 -2.661 -0.89797 l0 0.27119 c0 0.33898 -0.33898 0.52542 -0.61017 0.52542 l-0.47458 0 c-0.10186 0 -0.18644 -0.08458 -0.18644 -0.20322 l0 -12.119 c0 -0.42373 -0.067797 -0.67814 -0.10169 -0.9661 c-0.016784 -0.15254 0.034064 -0.27119 0.15271 -0.27119 l0.77966 0 c0.27119 0 0.44068 0.16949 0.44068 0.4239 l0 5.4576 c0.61017 -0.42373 1.4576 -0.79661 2.661 -0.79661 z M67.18628305084745 22.9153 c1.661 0 2.8475 -1.2885 2.8475 -3.1866 c0 -2.0678 -1.5254 -3 -2.8475 -3 c-0.94915 0 -1.7627 0.32203 -2.4576 0.81356 l0 4.5424 c0.64407 0.44085 1.4407 0.83068 2.4576 0.83068 z M72.93220322033898 22.8476 l0.42356 -0.61034 c0.084746 -0.13559 0.15254 -0.16949 0.28814 -0.10169 c0.050847 0.050847 1.1017 0.76271 2.3898 0.76271 c1.4237 0 1.8644 -0.61017 1.8644 -1.1693 c0 -0.81356 -0.94915 -1.1186 -2.1017 -1.4237 c-1.6949 -0.44068 -2.8136 -1.1695 -2.8136 -2.4576 c0 -1.2373 1.0678 -2.3559 3.0339 -2.3559 c1.2203 0 2.1864 0.52542 2.7627 0.86441 c0.13559 0.067797 0.18644 0.18644 0.11864 0.28814 l-0.44068 0.64407 c-0.067797 0.11864 -0.16949 0.15254 -0.28814 0.084746 c-0.66102 -0.33898 -1.322 -0.64407 -2.1525 -0.64407 c-1.4407 0 -1.6949 0.77966 -1.6949 1.1695 c0 0.76271 0.98305 1.0678 1.9492 1.339 c1.5086 0.40678 3.051 1.0508 3.051 2.4917 c0 1.4236 -1.2881 2.3895 -3.2881 2.3895 c-1.3729 0 -2.6102 -0.6778 -3.0339 -1.0168 c-0.084746 -0.067797 -0.11864 -0.18644 -0.067797 -0.25424 z"></path></g><g id="SvgjsG1334" featureKey="text3" fill="#357f53" transform="matrix(0.8796493813753248,0,0,0.8796493813753248,99.2083150534228,90.41462183644106)"><path d="M8.1 9.8 c3.76 0 7.2 2.96 7.2 7.2 s-3.44 7.2 -7.2 7.2 s-7.2 -2.96 -7.2 -7.2 s3.44 -7.2 7.2 -7.2 z M8.1 22.12 c2.58 0 4.92 -2.12 4.92 -5.12 s-2.34 -5.12 -4.92 -5.12 s-4.92 2.12 -4.92 5.12 s2.34 5.12 4.92 5.12 z M22.1 10 c3.14 0 5.06 1.92 5.06 4.62 s-1.92 4.5 -5.06 4.5 l-2.5 0 l0 4.88 l-2.2 0 l0 -14 l4.7 0 z M22 17.2 c1.78 0 2.96 -0.84 2.96 -2.58 s-1.18 -2.58 -2.96 -2.58 l-2.4 0 l0 5.16 l2.4 0 z M33.76 10 c3.14 0 5.06 1.92 5.06 4.62 s-1.92 4.5 -5.06 4.5 l-2.5 0 l0 4.88 l-2.2 0 l0 -14 l4.7 0 z M33.66 17.2 c1.78 0 2.96 -0.84 2.96 -2.58 s-1.18 -2.58 -2.96 -2.58 l-2.4 0 l0 5.16 l2.4 0 z M47.62 9.8 c3.76 0 7.2 2.96 7.2 7.2 s-3.44 7.2 -7.2 7.2 s-7.2 -2.96 -7.2 -7.2 s3.44 -7.2 7.2 -7.2 z M47.62 22.12 c2.58 0 4.92 -2.12 4.92 -5.12 s-2.34 -5.12 -4.92 -5.12 s-4.92 2.12 -4.92 5.12 s2.34 5.12 4.92 5.12 z M67.52 24 l-2.36 0 l-3.3 -4.88 l-0.24 0 l-2.5 0 l0 4.88 l-2.2 0 l0 -14 l4.7 0 c3.14 0 5.06 1.92 5.06 4.62 c0 1.96 -1.02 3.46 -2.78 4.12 z M59.12 12.04 l0 5.16 l2.4 0 c1.78 0 2.96 -0.84 2.96 -2.58 s-1.18 -2.58 -2.96 -2.58 l-2.4 0 z M78.56 10 l0 2.04 l-3.72 0 l0 11.96 l-2.2 0 l0 -11.96 l-3.72 0 l0 -2.04 l9.64 0 z M88.8 10 l2.2 0 l0 8.92 c0 3.42 -2.34 5.38 -5.22 5.38 s-5.22 -1.96 -5.22 -5.38 l0 -8.92 l2.2 0 l0 8.92 c0 2.38 1.46 3.3 3.02 3.3 s3.02 -0.92 3.02 -3.3 l0 -8.92 z M102.9 10 l2.2 0 l0 14 l-1.68 0 l-7.82 -9.98 l0 9.98 l-2.2 0 l0 -14 l1.7 0 l7.8 10 l0 -10 z M109.7 10 l0 14 l-2.2 0 l0 -14 l2.2 0 z M121.33999999999999 10 l0 2.04 l-3.72 0 l0 11.96 l-2.2 0 l0 -11.96 l-3.72 0 l0 -2.04 l9.64 0 z M135.45999999999998 10 l-5.26 7.76 l0 6.24 l-2.2 0 l0 -6.24 l-5.26 -7.76 l2.5 0 l3.86 5.76 l3.86 -5.76 l2.5 0 z  M154.51999999999998 24 l-1.28 -2.96 l-7.16 0 l-1.28 2.96 l-2.34 0 l6.24 -14 l1.92 0 l6.24 14 l-2.34 0 z M146.87999999999997 19.22 l5.56 0 l-2.78 -6.44 z M177.21999999999997 10 l-4.56 14 l-1.52 0 l-3.6 -10.04 l-3.6 10.04 l-1.52 0 l-4.56 -14 l2.3 0 l3.1 9.6 l3.46 -9.6 l1.64 0 l3.46 9.6 l3.1 -9.6 l2.3 0 z M190.27999999999997 24 l-1.28 -2.96 l-7.16 0 l-1.28 2.96 l-2.34 0 l6.24 -14 l1.92 0 l6.24 14 l-2.34 0 z M182.63999999999996 19.22 l5.56 0 l-2.78 -6.44 z M196.41999999999996 10 l0 14 l-2.2 0 l0 -14 l2.2 0 z M208.05999999999995 10 l0 2.04 l-3.72 0 l0 11.96 l-2.2 0 l0 -11.96 l-3.72 0 l0 -2.04 l9.64 0 z M214.47999999999996 9.76 c2.3 0 3.88 1.48 4.54 2.92 l-1.64 0.94 c-0.7 -1.18 -1.6 -1.9 -2.9 -1.9 s-2.22 0.76 -2.22 1.8 c0 0.98 0.62 1.58 1.96 2.08 l0.98 0.36 c2.78 1.02 4.2 2.22 4.2 4.32 c0 2.58 -2.46 4.02 -4.84 4.02 c-2.44 0 -4.4 -1.46 -5 -3.44 l1.72 -0.88 c0.5 1.28 1.58 2.32 3.28 2.32 c1.4 0 2.56 -0.74 2.56 -2 c0 -1.34 -0.9 -1.88 -2.5 -2.48 l-0.96 -0.36 c-2.1 -0.78 -3.58 -1.84 -3.58 -4.02 c0 -2.12 1.92 -3.68 4.4 -3.68 z"></path></g>
			</g>
		</svg>
	